<svg xmlns="http://www.w3.org/2000/svg" viewBox="0 0 64 64">
  <rect width="64" height="64" rx="12" fill="#12101c"/>
  <path d="M-6 60 A44 44 0 0 1 70 60 L70 64 L-6 64 Z" fill="#221e3a"/>
  <g transform="rotate(-12 32 28)">
    <rect x="18" y="8" width="28" height="40" fill="none" stroke="#8c7bd4" stroke-width="1.6" opacity="0.85"/>
    <g fill="#d4af6a">
      <circle cx="18" cy="8" r="3.4"/>
      <circle cx="46" cy="8" r="3.4"/>
      <circle cx="46" cy="48" r="3.4"/>
      <circle cx="18" cy="48" r="3.4"/>
    </g>
    <path d="M32 22 L34 26 L38 28 L34 30 L32 34 L30 30 L26 28 L30 26 Z" fill="#f6e9cc"/>
  </g>
  <g fill="#a49dc4" opacity="0.8">
    <circle cx="8" cy="16" r="1.3"/>
    <circle cx="56" cy="22" r="1.1"/>
    <circle cx="12" cy="42" r="1.2"/>
    <circle cx="53" cy="40" r="1.4"/>
  </g>
</svg>
